<svg xmlns="http://www.w3.org/2000/svg" xmlns:xlink="http://www.w3.org/1999/xlink" width="50" height="50" viewBox="0 0 50 50"><defs><clipPath id="b"><rect width="50" height="50"/></clipPath></defs><g id="a" clip-path="url(#b)"><g transform="translate(3.908 9.57)"><path d="M256.7,3499.081a3,3,0,0,1-2.977-2.66c-.123-.988-1.534-9.5-13.37-9.923a3,3,0,1,1,.214-6c13.886.5,18.578,10.2,19.119,15.26a3,3,0,0,1-2.987,3.319Z" transform="translate(-214.559 -3483.5)"/><path d="M240.435,3499a3,3,0,0,1-.105-6c11.855-.423,13.283-8.609,13.407-9.542a3,3,0,0,1,5.958.7c-.558,4.914-5.28,14.338-19.152,14.833Z" transform="translate(-214.531 -3470.839)"/><path d="M0,34.4a3,3,0,0,1-3-3A17.375,17.375,0,0,1,3.051,17.741C15.116,7.194,41.435,10.6,42.55,10.754a3,3,0,0,1-.8,5.946C41.5,16.668,17.007,13.5,7,22.262A11.464,11.464,0,0,0,3,31.4,3,3,0,0,1,0,34.4Z" transform="translate(0 -0.537)"/></g></g></svg>